<svg xmlns="http://www.w3.org/2000/svg" viewBox="0 0 122.4 178.32"><defs><style>.cls-1{fill:#fff;}.cls-2{fill:gray;}.cls-3{fill:#0396c1;}.cls-4{fill:#25adcd;}.cls-5{fill:#80cfe2;}</style></defs><title>Wolf_T_1_SVG</title><g id="Layer_2" data-name="Layer 2"><g id="Layer_1-2" data-name="Layer 1"><path class="cls-1" d="M61.2,57.29l12.95,9.33v7.9l2.63,1.93V85l10.45,7.73v6L68.09,112.57l8.31,15.16,11.66-.42,10-11.77v-8.78l-3-2.19V93.1l10.78-7.77V44L87.57,57.16,81.31,39.29,95.22,7l23,25.71,4.17,37.08L113.9,110c-4.41,5.21-20.29,23.7-23.83,27.88-.67,3.83-7,27.78-7,27.78L68.38,176.37l-7.18,2-7.18-2L39.33,165.63s-6.34-24-7-27.78C28.79,133.66,12.91,115.17,8.5,110L0,69.79,4.17,32.71,27.18,7l13.9,32.29L34.83,57.16,16.52,44V85.33L27.29,93.1v11.48l-3,2.19v8.78l10,11.77,11.66.42,8.31-15.16L35.18,98.71v-6L45.63,85V76.46l2.63-1.93v-7.9Z"/><path class="cls-2" d="M32.18,92.73v6l19.13,13.86-9.06,16.52-9.72-.39L21.33,115.54v-9.78l3-2.19V94.1L13.51,86.33V44l18.31,13.2,6.25-17.87L24.18,7,27,4.26,39.08,32.89,59.2,29.78Zm65.93,10.84V94.1l10.78-7.77V44L90.57,57.16,84.31,39.29,98.22,7,95.38,4.26,83.31,32.89,63.2,29.78l27,62.95v6L71.09,112.57l9.06,16.52,9.72-.39,11.18-13.16v-9.78Z"/><path d="M61.2,57.29l12.95,9.33v7.9l2.63,1.93V85l10.45,7.73v6L68.09,112.57l8.31,15.16,11.66-.42,10-11.77v-8.78l-3-2.19V93.1l10.78-7.77V44L87.57,57.16,81.31,39.29,95.22,7l23,25.71L117.55,26,94.22,0,81.31,29.89,61.2,26.78,41.08,29.89,28.18,0,4.84,26l-.68,6.76L27.18,7l13.9,32.29L34.83,57.16,16.52,44V85.33L27.29,93.1v11.48l-3,2.19v8.78l10,11.77,11.66.42,8.31-15.16L35.18,98.71v-6L45.63,85V76.46l2.63-1.93v-7.9Z"/><path class="cls-2" d="M61.2,177.33l8.5-1.92,7.62-5.56-9.66-7.14H54.78l-9.69,7.14,7.62,5.56Z"/><path d="M61.2,178.32l7.18-2,7.5-5.49L66,163.71H56.43l-9.91,7.17,7.5,5.49Z"/><g id="Left_eye" data-name="Left eye"><polygon class="cls-3" points="36.69 108.36 43.14 113.19 36.69 117.56 30.9 112.83 30.9 108.36 36.69 108.36"/><polygon class="cls-4" points="38.76 108.36 45.16 113.19 38.76 117.56 32.92 112.83 32.92 108.36 38.76 108.36"/><polygon class="cls-5" points="40.76 108.36 47.16 113.19 40.76 117.56 34.92 112.83 34.92 108.36 40.76 108.36"/></g><g id="Right_eye" data-name="Right eye"><polygon class="cls-3" points="85.71 108.36 79.26 113.19 85.71 117.56 91.5 112.83 91.5 108.36 85.71 108.36"/><polygon class="cls-4" points="83.64 108.36 77.24 113.19 83.64 117.56 89.48 112.83 89.48 108.36 83.64 108.36"/><polygon class="cls-5" points="81.64 108.36 75.24 113.19 81.64 117.56 87.48 112.83 87.48 108.36 81.64 108.36"/></g></g></g></svg>